<svg width="18" height="18" viewBox="0 0 18 18" fill="none" xmlns="http://www.w3.org/2000/svg">
<path fill-rule="evenodd" clip-rule="evenodd" d="M14.8378 11.0645C15.3752 11.0645 15.8108 11.5267 15.8108 12.0968V15.9677C15.8108 16.5378 15.3752 17 14.8378 17C14.3005 17 13.8649 16.5378 13.8649 15.9677V12.0968C13.8649 11.5267 14.3005 11.0645 14.8378 11.0645Z" fill="#1C2022"/>
<path fill-rule="evenodd" clip-rule="evenodd" d="M11.6757 12.0968C11.6757 11.5267 12.1113 11.0645 12.6486 11.0645H17.027C17.5644 11.0645 18 11.5267 18 12.0968C18 12.6669 17.5644 13.129 17.027 13.129H12.6486C12.1113 13.129 11.6757 12.6669 11.6757 12.0968Z" fill="#1C2022"/>
<path fill-rule="evenodd" clip-rule="evenodd" d="M3.16216 9.51613C3.69952 9.51613 4.13514 9.97829 4.13514 10.5484V15.9677C4.13514 16.5378 3.69952 17 3.16216 17C2.6248 17 2.18919 16.5378 2.18919 15.9677V10.5484C2.18919 9.97829 2.6248 9.51613 3.16216 9.51613Z" fill="#1C2022"/>
<path fill-rule="evenodd" clip-rule="evenodd" d="M0 10.5484C0 9.97829 0.435615 9.51613 0.972973 9.51613H5.35135C5.88871 9.51613 6.32432 9.97829 6.32432 10.5484C6.32432 11.1185 5.88871 11.5806 5.35135 11.5806H0.972973C0.435615 11.5806 0 11.1185 0 10.5484Z" fill="#1C2022"/>
<path fill-rule="evenodd" clip-rule="evenodd" d="M9 7.96774C9.53736 7.96774 9.97297 8.4299 9.97297 9V15.9677C9.97297 16.5378 9.53736 17 9 17C8.46264 17 8.02703 16.5378 8.02703 15.9677V9C8.02703 8.4299 8.46264 7.96774 9 7.96774Z" fill="#1C2022"/>
<path fill-rule="evenodd" clip-rule="evenodd" d="M5.83784 5.90323C5.83784 5.33313 6.27345 4.87097 6.81081 4.87097H11.1892C11.7265 4.87097 12.1622 5.33313 12.1622 5.90323C12.1622 6.47333 11.7265 6.93548 11.1892 6.93548H6.81081C6.27345 6.93548 5.83784 6.47333 5.83784 5.90323Z" fill="#1C2022"/>
<path fill-rule="evenodd" clip-rule="evenodd" d="M14.8378 1C15.3752 1 15.8108 1.46216 15.8108 2.03226V9C15.8108 9.5701 15.3752 10.0323 14.8378 10.0323C14.3005 10.0323 13.8649 9.5701 13.8649 9V2.03226C13.8649 1.46216 14.3005 1 14.8378 1Z" fill="#1C2022"/>
<path fill-rule="evenodd" clip-rule="evenodd" d="M9 1C9.53736 1 9.97297 1.46216 9.97297 2.03226V5.90323C9.97297 6.47333 9.53736 6.93548 9 6.93548C8.46264 6.93548 8.02703 6.47333 8.02703 5.90323V2.03226C8.02703 1.46216 8.46264 1 9 1Z" fill="#1C2022"/>
<path fill-rule="evenodd" clip-rule="evenodd" d="M3.16216 1C3.69952 1 4.13514 1.46216 4.13514 2.03226V7.45161C4.13514 8.02171 3.69952 8.48387 3.16216 8.48387C2.6248 8.48387 2.18919 8.02171 2.18919 7.45161V2.03226C2.18919 1.46216 2.6248 1 3.16216 1Z" fill="#1C2022"/>
</svg>
