<svg width="24" height="24" viewBox="0 0 24 24" xmlns="http://www.w3.org/2000/svg">
<path fill-rule="evenodd" clip-rule="evenodd" d="M3.8716 3.25001C3.78302 3.24947 3.69532 3.26769 3.61429 3.30347C3.53325 3.33925 3.46071 3.39179 3.40143 3.45762C3.34215 3.52345 3.29749 3.60109 3.27037 3.68542C3.24351 3.76897 3.23447 3.85721 3.24383 3.94445C3.50869 6.19046 4.33935 10.2045 6.79211 13.7432C9.21428 17.2377 13.2513 20.3239 20.0954 20.7515C20.1785 20.7552 20.2615 20.7422 20.3395 20.7135C20.419 20.6843 20.4917 20.6392 20.5533 20.5812C20.6149 20.5231 20.6641 20.4531 20.6979 20.3755C20.7314 20.2988 20.7492 20.2162 20.7502 20.1326V16.3932C20.7484 16.269 20.7102 16.1481 20.6404 16.0454C20.5703 15.9423 20.4714 15.8622 20.3561 15.8149C20.3555 15.8146 20.3548 15.8144 20.3541 15.8141L18.3169 15.0007C18.3163 15.0005 18.3156 15.0002 18.315 15C18.1997 14.9551 18.074 14.9444 17.9528 14.9693C17.8317 14.9941 17.7204 15.0534 17.6321 15.1398L15.6091 17.1628L15.124 17.1023C11.5005 16.6504 9.39574 14.5758 8.22574 12.646C7.64581 11.6894 7.29168 10.7655 7.08187 10.0815C6.97657 9.73828 6.90653 9.4519 6.86218 9.24724C6.83998 9.14481 6.82415 9.06254 6.81352 9.0035C6.8082 8.97397 6.80418 8.95022 6.80131 8.93264L6.79784 8.91092L6.79671 8.90361L6.7963 8.90086L6.79613 8.89971C6.79605 8.8992 6.79598 8.89871 7.78524 8.75253L6.79598 8.89871L6.72245 8.4011L8.75683 6.36672C8.757 6.36656 8.75667 6.36689 8.75683 6.36672C8.84256 6.28049 8.90153 6.17044 8.92548 6.05122C8.94947 5.93176 8.93774 5.80788 8.89174 5.69506L8.889 5.68834L8.07153 3.64083C8.02571 3.52592 7.94638 3.4269 7.84408 3.35733C7.74208 3.28798 7.62173 3.25062 7.49842 3.25003L3.8716 3.25001ZM8.87626 9.07572C8.90702 9.19694 8.94577 9.338 8.99392 9.49495C9.16848 10.064 9.46217 10.8276 9.93599 11.6091C10.8207 13.0684 12.319 14.5791 14.898 15.0456L16.225 13.7185C16.5891 13.359 17.0497 13.1129 17.5509 13.0101C18.0521 12.9073 18.5724 12.9522 19.0486 13.1393L19.0535 13.1413L21.1063 13.9609C21.5884 14.1566 22.0017 14.4906 22.2943 14.9208C22.5868 15.351 22.7454 15.8582 22.7502 16.3784L22.7503 16.3875L22.7502 20.1455C22.7474 20.5 22.6729 20.8502 22.5311 21.1752C22.3894 21.5001 22.1833 21.793 21.9254 22.0362C21.6675 22.2795 21.363 22.468 21.0303 22.5904C20.6976 22.7129 20.3436 22.7667 19.9895 22.7487L19.9781 22.7482C12.479 22.2817 7.89664 18.8475 5.14837 14.8825C2.43128 10.9625 1.54024 6.57919 1.2571 4.17446L1.25636 4.16815C1.21532 3.7995 1.25283 3.42633 1.36638 3.07321C1.47992 2.72008 1.66695 2.395 1.91515 2.11935C2.16335 1.84369 2.46711 1.62372 2.80643 1.47389C3.1447 1.32452 3.51069 1.24824 3.88044 1.25003C3.88159 1.25004 3.88273 1.25004 3.88388 1.25005L3.87774 2.25003V1.25003H3.88044H7.5032C8.026 1.25158 8.53638 1.4095 8.9687 1.70348C9.40101 1.99745 9.7355 2.41404 9.92912 2.89966L10.7453 4.94382C10.9384 5.41957 10.9874 5.94161 10.8863 6.44506C10.7849 6.94986 10.537 7.41359 10.1736 7.77834L8.87626 9.07572Z"/>
</svg>
