<svg width="56" height="56" viewBox="0 0 56 56" fill="none" xmlns="http://www.w3.org/2000/svg">
<path d="M50.6035 36.3442L40.0568 25.8209C40.2776 24.7461 40.387 23.6514 40.3835 22.5542C40.3827 19.5457 39.6235 16.586 38.176 13.9486C36.7286 11.3112 34.6396 9.08124 32.1023 7.46485C29.5649 5.84847 26.661 4.89782 23.659 4.70078C20.657 4.50374 17.6537 5.06667 14.9268 6.33752C14.5814 6.49535 14.2796 6.73512 14.0478 7.03603C13.8161 7.33693 13.6612 7.68987 13.5968 8.06419C13.5327 8.43376 13.5586 8.81335 13.6723 9.17079C13.786 9.52823 13.9842 9.85298 14.2502 10.1175L24.4002 20.2442L20.2002 24.4442L10.0735 14.2942C9.80672 14.0324 9.48096 13.8385 9.12363 13.7289C8.7663 13.6193 8.38786 13.5971 8.02016 13.6642C7.64819 13.7262 7.2968 13.8775 6.99608 14.1051C6.69536 14.3327 6.45429 14.6297 6.2935 14.9709C5.01839 17.7067 4.45595 20.7206 4.65851 23.7322C4.86107 26.7438 5.82204 29.6553 7.45203 32.1957C9.08201 34.7362 11.3281 36.8231 13.9812 38.2623C16.6344 39.7016 19.6085 40.4464 22.6268 40.4275C23.724 40.431 24.8187 40.3216 25.8935 40.1009L36.4168 50.6475C36.6337 50.8662 36.8918 51.0398 37.1762 51.1583C37.4605 51.2767 37.7655 51.3377 38.0735 51.3377C38.3815 51.3377 38.6865 51.2767 38.9708 51.1583C39.2552 51.0398 39.5132 50.8662 39.7302 50.6475C39.9489 50.4306 40.1225 50.1725 40.2409 49.8882C40.3594 49.6039 40.4204 49.2989 40.4204 48.9909C40.4204 48.6828 40.3594 48.3778 40.2409 48.0935C40.1225 47.8092 39.9489 47.5511 39.7302 47.3342L28.2968 35.9009C28.0111 35.617 27.6568 35.412 27.2684 35.3057C26.8799 35.1994 26.4706 35.1954 26.0802 35.2942C24.9536 35.5959 23.7931 35.7527 22.6268 35.7609C20.8816 35.7762 19.1506 35.4462 17.5335 34.7897C15.9164 34.1332 14.4452 33.1632 13.2046 31.9356C11.964 30.708 10.9785 29.2471 10.305 27.637C9.63148 26.0269 9.28317 24.2995 9.28016 22.5542C9.27714 21.7726 9.33958 20.9921 9.46683 20.2209L18.6135 29.3909C18.8304 29.6096 19.0885 29.7831 19.3728 29.9016C19.6572 30.0201 19.9621 30.0811 20.2702 30.0811C20.5782 30.0811 20.8832 30.0201 21.1675 29.9016C21.4518 29.7831 21.7099 29.6096 21.9268 29.3909L29.3468 21.9009C29.7674 21.4658 30.0025 20.8843 30.0025 20.2792C30.0025 19.6741 29.7674 19.0926 29.3468 18.6575L20.2702 9.51086C21.0415 9.38489 21.8219 9.32245 22.6035 9.32419C26.1083 9.33037 29.4674 10.727 31.9434 13.2074C34.4195 15.6878 35.8102 19.0494 35.8102 22.5542C35.802 23.7205 35.6452 24.8809 35.3435 26.0075C35.2447 26.3979 35.2487 26.8073 35.355 27.1957C35.4613 27.5842 35.6663 27.9385 35.9502 28.2242L47.3835 39.6575C47.8229 40.0969 48.4188 40.3437 49.0402 40.3437C49.6615 40.3437 50.2575 40.0969 50.6968 39.6575C51.1362 39.2181 51.383 38.6222 51.383 38.0009C51.383 37.3795 51.1362 36.7836 50.6968 36.3442H50.6035Z" fill="white"/>
</svg>
