<svg width="56" height="56" viewBox="0 0 56 56" fill="none" xmlns="http://www.w3.org/2000/svg">
<path d="M42.0003 10.5H49.0003C49.6192 10.5 50.2127 10.2542 50.6502 9.81662C51.0878 9.37904 51.3337 8.78555 51.3337 8.16671C51.3337 7.54787 51.0878 6.95438 50.6502 6.51679C50.2127 6.07921 49.6192 5.83337 49.0003 5.83337H42.0003C41.3815 5.83337 40.788 6.07921 40.3504 6.51679C39.9128 6.95438 39.667 7.54787 39.667 8.16671C39.667 8.78555 39.9128 9.37904 40.3504 9.81662C40.788 10.2542 41.3815 10.5 42.0003 10.5ZM49.0003 15.1667H7.00033C6.38149 15.1667 5.788 15.4125 5.35041 15.8501C4.91283 16.2877 4.667 16.8812 4.667 17.5V26.8334C4.667 27.4522 4.91283 28.0457 5.35041 28.4833C5.788 28.9209 6.38149 29.1667 7.00033 29.1667H10.617L22.5403 35.14L16.5203 38.15C15.2206 36.8852 13.4806 36.1741 11.667 36.1667C10.2825 36.1667 8.92915 36.5773 7.778 37.3464C6.62686 38.1156 5.72965 39.2088 5.19984 40.4879C4.67003 41.767 4.5314 43.1745 4.8015 44.5323C5.07159 45.8902 5.73828 47.1375 6.71725 48.1165C7.69622 49.0954 8.9435 49.7621 10.3014 50.0322C11.6592 50.3023 13.0667 50.1637 14.3458 49.6339C15.6249 49.1041 16.7181 48.2068 17.4873 47.0557C18.2565 45.9046 18.667 44.5512 18.667 43.1667C18.6899 42.8872 18.6899 42.6062 18.667 42.3267L27.8603 37.66L37.3337 42.56C37.3222 42.7621 37.3222 42.9646 37.3337 43.1667C37.3337 44.5512 37.7442 45.9046 38.5134 47.0557C39.2825 48.2068 40.3758 49.1041 41.6549 49.6339C42.934 50.1637 44.3414 50.3023 45.6993 50.0322C47.0572 49.7621 48.3044 49.0954 49.2834 48.1165C50.2624 47.1375 50.9291 45.8902 51.1992 44.5323C51.4693 43.1745 51.3306 41.767 50.8008 40.4879C50.271 39.2088 49.3738 38.1156 48.2227 37.3464C47.0715 36.5773 45.7181 36.1667 44.3337 36.1667C43.3963 36.1704 42.4693 36.3623 41.6075 36.7311C40.7458 37.0998 39.9669 37.6379 39.317 38.3134L32.9703 35.14L44.8937 29.1667H49.0003C49.6192 29.1667 50.2127 28.9209 50.6502 28.4833C51.0878 28.0457 51.3337 27.4522 51.3337 26.8334V17.5C51.3337 17.1936 51.2733 16.8902 51.156 16.6071C51.0388 16.324 50.8669 16.0668 50.6502 15.8501C50.4336 15.6335 50.1763 15.4616 49.8933 15.3443C49.6102 15.2271 49.3067 15.1667 49.0003 15.1667ZM11.667 45.5C11.2055 45.5 10.7544 45.3632 10.3707 45.1068C9.98695 44.8504 9.68788 44.486 9.51128 44.0596C9.33467 43.6333 9.28846 43.1641 9.3785 42.7115C9.46853 42.2589 9.69076 41.8431 10.0171 41.5168C10.3434 41.1905 10.7592 40.9682 11.2118 40.8782C11.6644 40.7882 12.1336 40.8344 12.5599 41.011C12.9863 41.1876 13.3507 41.4867 13.6071 41.8704C13.8635 42.2541 14.0003 42.7052 14.0003 43.1667C14.0003 43.7855 13.7545 44.379 13.3169 44.8166C12.8793 45.2542 12.2858 45.5 11.667 45.5ZM44.3337 40.8334C44.7952 40.8334 45.2463 40.9702 45.63 41.2266C46.0137 41.483 46.3128 41.8474 46.4894 42.2738C46.666 42.7001 46.7122 43.1693 46.6222 43.6219C46.5321 44.0745 46.3099 44.4903 45.9836 44.8166C45.6573 45.143 45.2415 45.3652 44.7889 45.4552C44.3363 45.5452 43.8671 45.499 43.4407 45.3224C43.0144 45.1458 42.65 44.8468 42.3936 44.463C42.1372 44.0793 42.0003 43.6282 42.0003 43.1667C42.0003 42.5479 42.2462 41.9544 42.6837 41.5168C43.1213 41.0792 43.7148 40.8334 44.3337 40.8334ZM27.767 32.5267L21.0003 29.1667H34.417L27.767 32.5267ZM46.667 24.5H9.33366V19.8334H46.667V24.5Z" fill="#1C2022"/>
</svg>
