<svg width="24" height="24" viewBox="0 0 24 24" xmlns="http://www.w3.org/2000/svg">
<path fill-rule="evenodd" clip-rule="evenodd" d="M3.50042 12C3.50042 10.3189 3.99893 8.67547 4.93293 7.27765C5.86692 5.87984 7.19444 4.79037 8.74761 4.14702C10.3008 3.50368 12.0098 3.33535 13.6587 3.66333C15.3075 3.9913 16.8221 4.80085 18.0108 5.98959C19.1996 7.17834 20.0091 8.69289 20.3371 10.3417C20.6651 11.9906 20.4967 13.6996 19.8534 15.2528C19.21 16.806 18.1206 18.1335 16.7228 19.0675C15.3249 20.0015 13.6816 20.5 12.0004 20.5C10.3923 20.5029 8.81665 20.047 7.45842 19.186C7.3376 19.1096 7.2018 19.0599 7.06017 19.0404C6.91855 19.021 6.77439 19.0321 6.63742 19.073L3.75742 19.932L4.84242 17.395C4.90548 17.2473 4.93205 17.0866 4.91986 16.9264C4.90768 16.7663 4.8571 16.6115 4.77242 16.475C3.93835 15.1316 3.49767 13.5813 3.50042 12V12ZM12.0004 1.5C6.20142 1.5 1.50042 6.201 1.50042 12C1.50042 13.838 1.97342 15.568 2.80542 17.073L1.08042 21.107C1.00576 21.2817 0.982431 21.4741 1.01317 21.6617C1.04391 21.8492 1.12745 22.0241 1.25399 22.1658C1.38054 22.3076 1.54486 22.4104 1.7277 22.4621C1.91055 22.5139 2.10435 22.5124 2.28642 22.458L6.78642 21.116C8.37344 22.0255 10.1713 22.5027 12.0004 22.5C17.7994 22.5 22.5004 17.799 22.5004 12C22.5004 6.201 17.7994 1.5 12.0004 1.5ZM14.2934 14.182L12.9784 15.108C12.2539 14.6912 11.5886 14.1789 11.0004 13.585C10.369 12.9544 9.82296 12.2437 9.37642 11.471L10.2114 10.762C10.3854 10.6144 10.5037 10.4117 10.5466 10.1876C10.5895 9.96351 10.5545 9.73147 10.4474 9.53L9.38342 7.53C9.31261 7.39718 9.21274 7.28205 9.09124 7.1932C8.96974 7.10436 8.82975 7.04408 8.68171 7.01688C8.53367 6.98967 8.3814 6.99624 8.23625 7.03608C8.0911 7.07593 7.95682 7.14803 7.84342 7.247L7.52742 7.522C6.76842 8.184 6.31942 9.272 6.69142 10.374C7.28992 12.1171 8.28032 13.6997 9.58642 15C11.3994 16.813 13.2414 17.527 14.3194 17.805C15.1874 18.028 16.0084 17.729 16.5874 17.257L17.1784 16.775C17.303 16.6734 17.4013 16.5432 17.4649 16.3956C17.5285 16.2479 17.5555 16.0871 17.5438 15.9268C17.532 15.7664 17.4817 15.6113 17.3972 15.4745C17.3127 15.3377 17.1965 15.2233 17.0584 15.141L15.3804 14.141C15.2145 14.042 15.0234 13.9932 14.8303 14.0004C14.6373 14.0077 14.4504 14.0708 14.2924 14.182H14.2934Z"/>
</svg>
