<svg width="209" height="82" viewBox="0 0 209 82" fill="none" xmlns="http://www.w3.org/2000/svg">
<path d="M84.1134 5.53777H89.8662L87.0111 22.7963H92.3378L95.1929 5.53777H100.903L98.0481 22.7963H103.247L106.102 5.53777H111.812L108.19 27.356H80.4912L84.1134 5.53777ZM113.041 27.356L116.663 5.53777H122.586L121.18 14.0605H129.021L130.427 5.53777H136.35L132.728 27.356H126.805L128.211 18.8332H120.37L118.964 27.356H113.041ZM136.141 27.356L139.763 5.53777H155.487L154.678 10.3105H144.877L144.28 14.0605H153.271L152.462 18.8332H143.47L142.874 22.5832H152.632L151.823 27.356H136.141ZM168.848 27.356L163.627 18.5349H162.796L161.326 27.356H155.403L159.025 5.53777H164.948L163.585 13.7622H164.352L171.98 5.53777H179.437L169.401 16.0207L176.284 27.356H168.848ZM101.649 43.7196H95.7256C95.7682 43.2153 95.7398 42.7608 95.6404 42.356C95.5409 41.9511 95.3705 41.6031 95.129 41.3119C94.8875 41.0136 94.5715 40.7864 94.1809 40.6301C93.7902 40.4739 93.325 40.3957 92.7853 40.3957C91.7483 40.3957 90.8215 40.655 90.0047 41.1734C89.188 41.6848 88.5097 42.4199 87.9699 43.3787C87.4302 44.3304 87.0466 45.4668 86.8194 46.7878C86.6205 48.0662 86.6134 49.128 86.7981 49.9731C86.9898 50.8183 87.3627 51.4504 87.9167 51.8695C88.4777 52.2885 89.2057 52.498 90.1006 52.498C90.6972 52.498 91.2441 52.427 91.7412 52.2849C92.2455 52.1429 92.6929 51.9405 93.0836 51.6777C93.4813 51.4078 93.8186 51.0882 94.0956 50.7189C94.3797 50.3425 94.5963 49.927 94.7455 49.4724H100.711C100.484 50.3957 100.079 51.3403 99.4969 52.3062C98.9145 53.265 98.1617 54.1493 97.2384 54.9589C96.3151 55.7615 95.2284 56.4114 93.9784 56.9085C92.7284 57.4057 91.3222 57.6543 89.7597 57.6543C87.7142 57.6543 85.9493 57.2068 84.465 56.3119C82.9877 55.417 81.9152 54.1102 81.2476 52.3915C80.5871 50.6727 80.4557 48.5775 80.8534 46.106C81.2512 43.7196 82.036 41.7203 83.2079 40.1081C84.3797 38.4959 85.8037 37.2814 87.4799 36.4646C89.156 35.6479 90.9387 35.2395 92.8279 35.2395C94.2554 35.2395 95.5338 35.4277 96.6631 35.8041C97.7995 36.1805 98.7547 36.731 99.5289 37.4554C100.31 38.1727 100.885 39.057 101.255 40.1081C101.624 41.1592 101.755 42.3631 101.649 43.7196ZM102.699 57.356L106.321 35.5378H122.046L121.236 40.3105H111.435L110.838 44.0605H119.83L119.02 48.8332H110.029L109.432 52.5832H119.19L118.381 57.356H102.699ZM121.961 57.356L125.583 35.5378H135.001C136.62 35.5378 137.984 35.8574 139.092 36.4966C140.2 37.1358 140.995 38.0342 141.478 39.1919C141.961 40.3496 142.075 41.7025 141.819 43.2508C141.563 44.8275 140.995 46.1876 140.115 47.3311C139.241 48.4675 138.126 49.3446 136.769 49.9625C135.42 50.5733 133.907 50.8787 132.231 50.8787H126.606L127.373 46.2764H131.805C132.515 46.2764 133.14 46.1557 133.68 45.9142C134.22 45.6656 134.656 45.3176 134.99 44.8702C135.324 44.4156 135.541 43.8758 135.64 43.2508C135.74 42.6258 135.693 42.0932 135.502 41.6528C135.317 41.2054 134.997 40.8645 134.543 40.6301C134.095 40.3886 133.524 40.2679 132.828 40.2679H130.74L127.884 57.356H121.961ZM142.249 57.356L145.871 35.5378H155.331C156.993 35.5378 158.353 35.7615 159.411 36.2089C160.477 36.6564 161.229 37.2885 161.67 38.1052C162.117 38.922 162.249 39.8844 162.064 40.9923C161.922 41.7878 161.617 42.5158 161.148 43.1763C160.686 43.8297 160.1 44.3837 159.39 44.8382C158.687 45.2856 157.902 45.5946 157.036 45.765L156.993 45.9781C157.93 46.0065 158.747 46.2409 159.443 46.6812C160.139 47.1145 160.651 47.7182 160.977 48.4923C161.304 49.2594 161.382 50.1543 161.212 51.177C161.013 52.3702 160.526 53.432 159.752 54.3623C158.978 55.2927 157.973 56.0243 156.737 56.557C155.501 57.0896 154.095 57.356 152.519 57.356H142.249ZM148.982 52.6258H151.751C152.732 52.6258 153.502 52.4376 154.063 52.0612C154.631 51.6848 154.969 51.1344 155.075 50.4099C155.161 49.8986 155.118 49.4653 154.947 49.1102C154.777 48.7551 154.489 48.4852 154.085 48.3006C153.68 48.1159 153.172 48.0236 152.561 48.0236H149.706L148.982 52.6258ZM150.345 44.3588H152.774C153.286 44.3588 153.754 44.2771 154.18 44.1138C154.607 43.9504 154.958 43.7125 155.235 43.4C155.512 43.0875 155.686 42.7111 155.757 42.2707C155.864 41.5889 155.7 41.0704 155.267 40.7153C154.841 40.3602 154.266 40.1827 153.541 40.1827H151.027L150.345 44.3588ZM166.51 35.5378H172.433L170.537 46.9582H170.707L180.359 35.5378H185.388L181.766 57.356H175.842L177.739 45.8929H177.611L167.831 57.356H162.888L166.51 35.5378ZM207.774 43.7196H201.851C201.893 43.2153 201.865 42.7608 201.765 42.356C201.666 41.9511 201.495 41.6031 201.254 41.3119C201.013 41.0136 200.696 40.7864 200.306 40.6301C199.915 40.4739 199.45 40.3957 198.91 40.3957C197.873 40.3957 196.946 40.655 196.13 41.1734C195.313 41.6848 194.635 42.4199 194.095 43.3787C193.555 44.3304 193.172 45.4668 192.944 46.7878C192.745 48.0662 192.738 49.128 192.923 49.9731C193.115 50.8183 193.488 51.4504 194.042 51.8695C194.603 52.2885 195.331 52.498 196.226 52.498C196.822 52.498 197.369 52.427 197.866 52.2849C198.37 52.1429 198.818 51.9405 199.209 51.6777C199.606 51.4078 199.944 51.0882 200.221 50.7189C200.505 50.3425 200.721 49.927 200.87 49.4724H206.836C206.609 50.3957 206.204 51.3403 205.622 52.3062C205.04 53.265 204.287 54.1493 203.363 54.9589C202.44 55.7615 201.353 56.4114 200.103 56.9085C198.853 57.4057 197.447 57.6543 195.885 57.6543C193.839 57.6543 192.074 57.2068 190.59 56.3119C189.113 55.417 188.04 54.1102 187.373 52.3915C186.712 50.6727 186.581 48.5775 186.978 46.106C187.376 43.7196 188.161 41.7203 189.333 40.1081C190.505 38.4959 191.929 37.2814 193.605 36.4646C195.281 35.6479 197.064 35.2395 198.953 35.2395C200.38 35.2395 201.659 35.4277 202.788 35.8041C203.924 36.1805 204.88 36.731 205.654 37.4554C206.435 38.1727 207.01 39.057 207.38 40.1081C207.749 41.1592 207.88 42.3631 207.774 43.7196Z" fill="#1C2022"/>
<path d="M84.8293 72.8105C84.7782 72.3787 84.5708 72.0435 84.2071 71.8048C83.8435 71.5662 83.3975 71.4469 82.8691 71.4469C82.4827 71.4469 82.1446 71.5094 81.8549 71.6344C81.5679 71.7594 81.3435 71.9312 81.1816 72.15C81.0225 72.3687 80.9429 72.6173 80.9429 72.8957C80.9429 73.1287 80.9983 73.329 81.1091 73.4966C81.2228 73.6614 81.3677 73.7991 81.5438 73.9099C81.7199 74.0179 81.9046 74.1074 82.0978 74.1784C82.2909 74.2466 82.4685 74.302 82.6304 74.3446L83.5168 74.5832C83.7441 74.6429 83.9969 74.7253 84.2753 74.8304C84.5566 74.9355 84.825 75.079 85.0807 75.2608C85.3392 75.4398 85.5523 75.6699 85.7199 75.9511C85.8875 76.2324 85.9713 76.5775 85.9713 76.9866C85.9713 77.4582 85.8478 77.8844 85.6006 78.265C85.3563 78.6457 84.9983 78.9483 84.5267 79.1727C84.058 79.3972 83.4884 79.5094 82.8179 79.5094C82.1929 79.5094 81.6517 79.4085 81.1944 79.2068C80.7398 79.0051 80.3819 78.7239 80.1205 78.3631C79.862 78.0023 79.7157 77.5832 79.6816 77.106H80.7725C80.8009 77.4355 80.9117 77.7082 81.1049 77.9241C81.3009 78.1372 81.5481 78.2963 81.8463 78.4014C82.1475 78.5037 82.4713 78.5548 82.8179 78.5548C83.2213 78.5548 83.5836 78.4895 83.9046 78.3588C84.2256 78.2253 84.4799 78.0406 84.6674 77.8048C84.8549 77.5662 84.9486 77.2878 84.9486 76.9696C84.9486 76.6798 84.8677 76.444 84.7057 76.2622C84.5438 76.0804 84.3307 75.9327 84.0665 75.819C83.8023 75.7054 83.5168 75.606 83.21 75.5207L82.1361 75.2139C81.4543 75.0179 80.9145 74.7381 80.5168 74.3744C80.1191 74.0108 79.9202 73.5349 79.9202 72.9469C79.9202 72.4582 80.0523 72.0321 80.3165 71.6685C80.5836 71.302 80.9415 71.0179 81.3904 70.8162C81.8421 70.6116 82.3463 70.5094 82.9032 70.5094C83.4657 70.5094 83.9657 70.6102 84.4032 70.8119C84.8407 71.0108 85.1873 71.2835 85.4429 71.6301C85.7015 71.9767 85.8378 72.3702 85.852 72.8105H84.8293ZM88.8489 79.356V70.6287H89.9057V74.515H94.5591V70.6287H95.616V79.356H94.5591V75.4525H89.9057V79.356H88.8489ZM105.792 70.6287V79.356H104.769L100.014 72.5037H99.9285V79.356H98.8717V70.6287H99.8945L104.667 77.498H104.752V70.6287H105.792ZM109.047 79.356V70.6287H114.314V71.5662H110.104V74.515H114.041V75.4525H110.104V78.4185H114.382V79.356H109.047ZM117.359 79.356V70.6287H118.416V74.9582H118.518L122.438 70.6287H123.819L120.154 74.5662L123.819 79.356H122.541L119.506 75.2991L118.416 76.5264V79.356H117.359ZM131.1 72.8105C131.048 72.3787 130.841 72.0435 130.477 71.8048C130.114 71.5662 129.668 71.4469 129.139 71.4469C128.753 71.4469 128.415 71.5094 128.125 71.6344C127.838 71.7594 127.614 71.9312 127.452 72.15C127.293 72.3687 127.213 72.6173 127.213 72.8957C127.213 73.1287 127.269 73.329 127.379 73.4966C127.493 73.6614 127.638 73.7991 127.814 73.9099C127.99 74.0179 128.175 74.1074 128.368 74.1784C128.561 74.2466 128.739 74.302 128.901 74.3446L129.787 74.5832C130.014 74.6429 130.267 74.7253 130.546 74.8304C130.827 74.9355 131.095 75.079 131.351 75.2608C131.61 75.4398 131.823 75.6699 131.99 75.9511C132.158 76.2324 132.242 76.5775 132.242 76.9866C132.242 77.4582 132.118 77.8844 131.871 78.265C131.627 78.6457 131.269 78.9483 130.797 79.1727C130.328 79.3972 129.759 79.5094 129.088 79.5094C128.463 79.5094 127.922 79.4085 127.465 79.2068C127.01 79.0051 126.652 78.7239 126.391 78.3631C126.132 78.0023 125.986 77.5832 125.952 77.106H127.043C127.071 77.4355 127.182 77.7082 127.375 77.9241C127.571 78.1372 127.818 78.2963 128.117 78.4014C128.418 78.5037 128.742 78.5548 129.088 78.5548C129.492 78.5548 129.854 78.4895 130.175 78.3588C130.496 78.2253 130.75 78.0406 130.938 77.8048C131.125 77.5662 131.219 77.2878 131.219 76.9696C131.219 76.6798 131.138 76.444 130.976 76.2622C130.814 76.0804 130.601 75.9327 130.337 75.819C130.073 75.7054 129.787 75.606 129.48 75.5207L128.406 75.2139C127.725 75.0179 127.185 74.7381 126.787 74.3744C126.389 74.0108 126.191 73.5349 126.191 72.9469C126.191 72.4582 126.323 72.0321 126.587 71.6685C126.854 71.302 127.212 71.0179 127.661 70.8162C128.112 70.6116 128.617 70.5094 129.173 70.5094C129.736 70.5094 130.236 70.6102 130.673 70.8119C131.111 71.0108 131.458 71.2835 131.713 71.6301C131.972 71.9767 132.108 72.3702 132.122 72.8105H131.1ZM135.119 79.356V70.6287H140.386V71.5662H136.176V74.515H140.114V75.4525H136.176V78.4185H140.454V79.356H135.119ZM143.431 79.356V70.6287H146.38C147.062 70.6287 147.621 70.7452 148.059 70.9781C148.496 71.2082 148.82 71.525 149.031 71.9284C149.241 72.3318 149.346 72.7906 149.346 73.3048C149.346 73.819 149.241 74.275 149.031 74.6727C148.82 75.0704 148.498 75.3829 148.063 75.6102C147.629 75.8347 147.073 75.9469 146.397 75.9469H144.011V74.9923H146.363C146.829 74.9923 147.204 74.9241 147.488 74.7878C147.775 74.6514 147.982 74.4582 148.11 74.2082C148.241 73.9554 148.306 73.6543 148.306 73.3048C148.306 72.9554 148.241 72.65 148.11 72.3886C147.979 72.1273 147.771 71.9256 147.484 71.7835C147.197 71.6386 146.817 71.5662 146.346 71.5662H144.488V79.356H143.431ZM147.539 75.4355L149.687 79.356H148.46L146.346 75.4355H147.539ZM152.406 70.6287L154.997 77.9753H155.099L157.69 70.6287H158.798L155.593 79.356H154.502L151.298 70.6287H152.406ZM162.354 70.6287V79.356H161.297V70.6287H162.354ZM172.636 73.356H171.579C171.516 73.052 171.407 72.7849 171.251 72.5548C171.097 72.3247 170.91 72.1315 170.688 71.9753C170.469 71.8162 170.226 71.6969 169.959 71.6173C169.692 71.5378 169.414 71.498 169.124 71.498C168.596 71.498 168.117 71.6315 167.688 71.8986C167.262 72.1656 166.922 72.5591 166.67 73.079C166.42 73.5989 166.295 74.2366 166.295 74.9923C166.295 75.748 166.42 76.3858 166.67 76.9057C166.922 77.4256 167.262 77.819 167.688 78.0861C168.117 78.3531 168.596 78.4866 169.124 78.4866C169.414 78.4866 169.692 78.4469 169.959 78.3673C170.226 78.2878 170.469 78.1699 170.688 78.0136C170.91 77.8545 171.097 77.6599 171.251 77.4298C171.407 77.1969 171.516 76.9298 171.579 76.6287H172.636C172.556 77.0747 172.411 77.4739 172.201 77.8261C171.991 78.1784 171.729 78.4781 171.417 78.7253C171.104 78.9696 170.753 79.1557 170.364 79.2835C169.978 79.4114 169.565 79.4753 169.124 79.4753C168.38 79.4753 167.718 79.2935 167.138 78.9298C166.559 78.5662 166.103 78.0491 165.77 77.3787C165.438 76.7082 165.272 75.9128 165.272 74.9923C165.272 74.0719 165.438 73.2764 165.77 72.606C166.103 71.9355 166.559 71.4185 167.138 71.0548C167.718 70.6912 168.38 70.5094 169.124 70.5094C169.565 70.5094 169.978 70.5733 170.364 70.7011C170.753 70.829 171.104 71.0165 171.417 71.2636C171.729 71.5079 171.991 71.8062 172.201 72.1585C172.411 72.5079 172.556 72.9071 172.636 73.356ZM175.483 79.356V70.6287H180.75V71.5662H176.54V74.515H180.478V75.4525H176.54V78.4185H180.819V79.356H175.483ZM184.392 79.4241C184.182 79.4241 184.001 79.3489 183.851 79.1983C183.7 79.0477 183.625 78.8673 183.625 78.6571C183.625 78.4469 183.7 78.2665 183.851 78.1159C184.001 77.9653 184.182 77.89 184.392 77.89C184.602 77.89 184.782 77.9653 184.933 78.1159C185.084 78.2665 185.159 78.4469 185.159 78.6571C185.159 78.7963 185.123 78.9241 185.052 79.0406C184.984 79.1571 184.892 79.2508 184.775 79.3219C184.662 79.39 184.534 79.4241 184.392 79.4241ZM188.24 79.356V70.6287H191.189C191.871 70.6287 192.43 70.7452 192.868 70.9781C193.305 71.2082 193.629 71.525 193.839 71.9284C194.05 72.3318 194.155 72.7906 194.155 73.3048C194.155 73.819 194.05 74.275 193.839 74.6727C193.629 75.0704 193.307 75.3829 192.872 75.6102C192.437 75.8347 191.882 75.9469 191.206 75.9469H188.819V74.9923H191.172C191.638 74.9923 192.013 74.9241 192.297 74.7878C192.584 74.6514 192.791 74.4582 192.919 74.2082C193.05 73.9554 193.115 73.6543 193.115 73.3048C193.115 72.9554 193.05 72.65 192.919 72.3886C192.788 72.1273 192.579 71.9256 192.292 71.7835C192.005 71.6386 191.626 71.5662 191.155 71.5662H189.297V79.356H188.24ZM192.348 75.4355L194.496 79.356H193.268L191.155 75.4355H192.348ZM202.783 70.6287H203.84V76.4071C203.84 77.0037 203.699 77.5364 203.418 78.0051C203.139 78.471 202.746 78.8389 202.237 79.1088C201.729 79.3758 201.132 79.5094 200.448 79.5094C199.763 79.5094 199.166 79.3758 198.658 79.1088C198.149 78.8389 197.754 78.471 197.473 78.0051C197.195 77.5364 197.056 77.0037 197.056 76.4071V70.6287H198.112V76.3219C198.112 76.748 198.206 77.1273 198.394 77.4597C198.581 77.7892 198.848 78.0491 199.195 78.2395C199.544 78.427 199.962 78.5207 200.448 78.5207C200.933 78.5207 201.351 78.427 201.701 78.2395C202.05 78.0491 202.317 77.7892 202.502 77.4597C202.689 77.1273 202.783 76.748 202.783 76.3219V70.6287Z" fill="#8D9ABC"/>
<path d="M56.6403 36.3328L58.2928 31.2472C58.2928 31.2472 63.6034 30.013 46.0182 19.0454C28.6184 8.19346 28.4501 8.25795 28.4485 8.26052L29.9506 3.63728L39.1739 3.56726L37.6717 8.19055C37.6717 8.19055 46.2911 12.4784 52.345 16.2859C68.4292 26.402 66.5913 30.8767 66.5913 30.8767L65.3896 34.5753L56.6403 36.3328Z" fill="#E8952D"/>
<path d="M49.0102 50.206L50.6626 45.1203C50.6626 45.1203 55.9733 43.8861 38.3881 32.9185C20.9883 22.0666 20.8199 22.1311 20.8183 22.1337L22.3205 17.5104L31.5438 17.4404L30.0416 22.0637C30.0416 22.0637 38.661 26.3515 44.7148 30.159C60.7991 40.2752 58.9612 44.7499 58.9612 44.7499L57.7595 48.4485L49.0102 50.206Z" fill="#E8952D"/>
<path d="M41.3798 64.0791L43.0323 58.9935C43.0323 58.9935 48.3429 57.7593 30.7577 46.7917C13.3579 35.9398 13.1896 36.0043 13.188 36.0069L14.6901 31.3836L23.9134 31.3136L22.4112 35.9369C22.4112 35.9369 31.0306 40.2247 37.0845 44.0322C53.1687 54.1484 51.3308 58.6231 51.3308 58.6231L50.1291 62.3217L41.3798 64.0791Z" fill="#E8952D"/>
<path d="M33.75 77.9523L35.4024 72.8667C35.4024 72.8667 40.7131 71.6325 23.1278 60.6649C5.72802 49.813 5.55969 49.8775 5.55808 49.88L7.06026 45.2568L16.2835 45.1868L14.7813 49.8101C14.7813 49.8101 23.4008 54.0979 29.4546 57.9054C45.5388 68.0215 43.701 72.4962 43.701 72.4962L42.4992 76.1949L33.75 77.9523Z" fill="#E8952D"/>
</svg>
