<svg xmlns="http://www.w3.org/2000/svg" xmlns:xlink="http://www.w3.org/1999/xlink"><symbol id="arrow-double-sym" viewBox="0 0 24 24"><title>arrow-double</title><path fill-rule="evenodd" clip-rule="evenodd" d="M4 12a1 1 0 0 1 1-1h14a1 1 0 1 1 0 2H5a1 1 0 0 1-1-1Z"/><path fill-rule="evenodd" clip-rule="evenodd" d="M11.293 4.293a1 1 0 0 1 1.414 0l7 7a1 1 0 0 1 0 1.414l-7 7a1 1 0 0 1-1.414-1.414L17.586 12l-6.293-6.293a1 1 0 0 1 0-1.414ZM23 4a1 1 0 0 1 1 1v14a1 1 0 1 1-2 0V5a1 1 0 0 1 1-1Z"/></symbol><use xlink:href="#arrow-double-sym" width="24" height="24"/><view id="arrow-double" viewBox="0 0 24 24"/><symbol id="arrow-linear-sym" viewBox="0 0 24 24"><title>arrow-linear</title><path fill-rule="evenodd" clip-rule="evenodd" d="M11.293 4.293a1 1 0 0 1 1.414 0l7 7a1 1 0 0 1 0 1.414l-7 7a1 1 0 0 1-1.414-1.414L16.586 13H5a1 1 0 1 1 0-2h11.586l-5.293-5.293a1 1 0 0 1 0-1.414Z"/></symbol><use xlink:href="#arrow-linear-sym" y="24" width="24" height="24"/><view id="arrow-linear" viewBox="0 24 24 24"/><symbol id="arrow-triangle-sym" viewBox="0 0 24 24"><title>arrow-triangle</title><path fill-rule="evenodd" clip-rule="evenodd" d="M8.293 5.293a1 1 0 0 1 1.414 0l6 6a1 1 0 0 1 0 1.414l-6 6a1 1 0 0 1-1.414-1.414L13.586 12 8.293 6.707a1 1 0 0 1 0-1.414Z"/></symbol><use xlink:href="#arrow-triangle-sym" y="48" width="24" height="24"/><view id="arrow-triangle" viewBox="0 48 24 24"/><symbol fill="none" id="close-sym" viewBox="0 0 24 24"><title>close</title><path fill-rule="evenodd" clip-rule="evenodd" d="M18.707 5.293a1 1 0 0 1 0 1.414l-12 12a1 1 0 0 1-1.414-1.414l12-12a1 1 0 0 1 1.414 0Z" fill="#000"/><path fill-rule="evenodd" clip-rule="evenodd" d="M5.293 5.293a1 1 0 0 1 1.414 0l12 12a1 1 0 0 1-1.414 1.414l-12-12a1 1 0 0 1 0-1.414Z" fill="#000"/></symbol><use fill="none" xlink:href="#close-sym" y="72" width="24" height="24"/><view id="close" viewBox="0 72 24 24"/><symbol fill="none" id="email-sym" viewBox="0 0 24 24"><title>email</title><path fill-rule="evenodd" clip-rule="evenodd" d="M3.107 5.554 12 11.779l8.893-6.225A1.006 1.006 0 0 0 20 5H4c-.388 0-.728.227-.893.554ZM21 7.921l-8.427 5.898a1 1 0 0 1-1.146 0L3 7.921V18c0 .548.452 1 1 1h16c.548 0 1-.452 1-1V7.92ZM1 6c0-1.652 1.348-3 3-3h16c1.652 0 3 1.348 3 3v12c0 1.652-1.348 3-3 3H4c-1.652 0-3-1.348-3-3V6Z" fill="#1C2022"/></symbol><use fill="none" xlink:href="#email-sym" y="96" width="24" height="24"/><view id="email" viewBox="0 96 24 24"/><symbol fill="none" id="filter-sym" viewBox="0 0 18 18"><title>filter</title><path fill-rule="evenodd" clip-rule="evenodd" d="M14.838 11.065c.537 0 .973.462.973 1.032v3.87c0 .57-.436 1.033-.973 1.033-.537 0-.973-.462-.973-1.032v-3.871c0-.57.435-1.032.973-1.032Z" fill="#1C2022"/><path fill-rule="evenodd" clip-rule="evenodd" d="M11.676 12.097c0-.57.435-1.032.973-1.032h4.378c.537 0 .973.462.973 1.032 0 .57-.436 1.032-.973 1.032h-4.378c-.538 0-.973-.462-.973-1.032ZM3.162 9.516c.538 0 .973.462.973 1.032v5.42c0 .57-.435 1.032-.973 1.032-.537 0-.973-.462-.973-1.032v-5.42c0-.57.436-1.032.973-1.032Z" fill="#1C2022"/><path fill-rule="evenodd" clip-rule="evenodd" d="M0 10.548c0-.57.436-1.032.973-1.032h4.378c.538 0 .973.462.973 1.032 0 .57-.435 1.033-.973 1.033H.973c-.537 0-.973-.463-.973-1.033Zm9-2.58c.537 0 .973.462.973 1.032v6.968C9.973 16.538 9.537 17 9 17c-.537 0-.973-.462-.973-1.032V9c0-.57.436-1.032.973-1.032ZM5.838 5.903c0-.57.435-1.032.973-1.032h4.378c.537 0 .973.462.973 1.032 0 .57-.436 1.032-.973 1.032H6.811c-.538 0-.973-.462-.973-1.032Zm9-4.903c.537 0 .973.462.973 1.032V9c0 .57-.436 1.032-.973 1.032-.537 0-.973-.462-.973-1.032V2.032c0-.57.435-1.032.973-1.032Z" fill="#1C2022"/><path fill-rule="evenodd" clip-rule="evenodd" d="M9 1c.537 0 .973.462.973 1.032v3.871c0 .57-.436 1.032-.973 1.032-.537 0-.973-.462-.973-1.032v-3.87C8.027 1.462 8.463 1 9 1ZM3.162 1c.538 0 .973.462.973 1.032v5.42c0 .57-.435 1.032-.973 1.032-.537 0-.973-.462-.973-1.032v-5.42c0-.57.436-1.032.973-1.032Z" fill="#1C2022"/></symbol><use fill="none" xlink:href="#filter-sym" y="120" width="18" height="18"/><view id="filter" viewBox="0 120 18 18"/><symbol id="instagram-sym" viewBox="0 0 24 24"><title>instagram</title><path fill-rule="evenodd" clip-rule="evenodd" d="M7 3a4 4 0 0 0-4 4v10a4 4 0 0 0 4 4h10a4 4 0 0 0 4-4V7a4 4 0 0 0-4-4H7ZM1 7a6 6 0 0 1 6-6h10a6 6 0 0 1 6 6v10a6 6 0 0 1-6 6H7a6 6 0 0 1-6-6V7Zm15.5-.5a1 1 0 0 1 1-1h.01a1 1 0 1 1 0 2h-.01a1 1 0 0 1-1-1Zm-4.017 2.49a3 3 0 1 0-.88 5.934 3 3 0 0 0 .88-5.935ZM9.74 7.518a5 5 0 1 1 4.606 8.876A5 5 0 0 1 9.74 7.519Z"/></symbol><use xlink:href="#instagram-sym" y="138" width="24" height="24"/><view id="instagram" viewBox="0 138 24 24"/><symbol fill="none" id="location-sym" viewBox="0 0 24 24"><title>location</title><path fill-rule="evenodd" clip-rule="evenodd" d="M12 2a8 8 0 0 0-8 8c0 3.098 2.016 6.104 4.226 8.437A29.419 29.419 0 0 0 12 21.773a29.412 29.412 0 0 0 3.774-3.335C17.984 16.103 20 13.097 20 10a8 8 0 0 0-8-8Zm0 21-.555.832-.003-.002-.007-.005-.023-.015a28.518 28.518 0 0 1-1.441-1.074 31.428 31.428 0 0 1-3.197-2.923C4.484 17.396 2 13.902 2 10a10 10 0 0 1 20 0c0 3.902-2.484 7.396-4.774 9.813a31.433 31.433 0 0 1-4.254 3.726 18.887 18.887 0 0 1-.384.27l-.023.016-.007.005-.002.001s-.001.001-.556-.831Zm0 0 .555.832a1 1 0 0 1-1.11 0L12 23Zm0-15a2 2 0 1 0 0 4 2 2 0 0 0 0-4Zm-4 2a4 4 0 1 1 8 0 4 4 0 0 1-8 0Z" fill="#1C2022"/></symbol><use fill="none" xlink:href="#location-sym" y="162" width="24" height="24"/><view id="location" viewBox="0 162 24 24"/><symbol fill="none" id="more-sym" viewBox="0 0 24 24"><title>more</title><path d="M5 14a2 2 0 1 0 0-4 2 2 0 0 0 0 4Zm7 0a2 2 0 1 0 0-4 2 2 0 0 0 0 4Zm7 0a2 2 0 1 0 0-4 2 2 0 0 0 0 4Z" fill="#8D9ABC"/></symbol><use fill="none" xlink:href="#more-sym" y="186" width="24" height="24"/><view id="more" viewBox="0 186 24 24"/><symbol id="phone-sym" viewBox="0 0 24 24"><title>phone</title><path fill-rule="evenodd" clip-rule="evenodd" d="M3.872 3.25a.628.628 0 0 0-.628.694c.265 2.246 1.095 6.26 3.548 9.8 2.422 3.494 6.46 6.58 13.303 7.008a.626.626 0 0 0 .655-.62v-3.739a.635.635 0 0 0-.394-.578h-.002L18.317 15h-.002a.642.642 0 0 0-.683.14l-2.023 2.023-.485-.06c-3.623-.453-5.728-2.527-6.898-4.457a11.492 11.492 0 0 1-1.364-3.399 7.09 7.09 0 0 1-.06-.314l-.004-.022-.001-.007V8.9s-.001-.001.988-.147l-.989.146-.074-.498 2.035-2.034a.622.622 0 0 0 .135-.672l-.003-.007-.817-2.047a.622.622 0 0 0-.574-.391H3.872Zm5.004 5.826a9.491 9.491 0 0 0 1.06 2.533c.885 1.46 2.383 2.97 4.962 3.437l1.327-1.327a2.643 2.643 0 0 1 2.824-.58l.005.002 2.052.82a2.636 2.636 0 0 1 1.644 2.417v3.767a2.626 2.626 0 0 1-2.76 2.604h-.012c-7.499-.467-12.081-3.901-14.83-7.866-2.717-3.92-3.608-8.304-3.89-10.709l-.002-.006A2.627 2.627 0 0 1 3.88 1.25h.004l-.006 1v-1h3.625A2.62 2.62 0 0 1 9.93 2.9l.816 2.044a2.62 2.62 0 0 1-.571 2.834L8.876 9.076Z"/></symbol><use xlink:href="#phone-sym" y="210" width="24" height="24"/><view id="phone" viewBox="0 210 24 24"/><symbol fill="none" id="refresh-sym" viewBox="0 0 24 24"><title>refresh</title><path fill-rule="evenodd" clip-rule="evenodd" d="M14.217 4.317a8 8 0 0 0-9.764 5.017 1 1 0 1 1-1.886-.668 10 10 0 0 1 16.489-3.744L22 7.688V4a1 1 0 1 1 2 0v6a1 1 0 0 1-1 1h-6a1 1 0 1 1 0-2h3.476l-2.8-2.631a8 8 0 0 0-3.458-2.051ZM0 14a1 1 0 0 1 1-1h6a1 1 0 1 1 0 2H3.525l2.8 2.631a8 8 0 0 0 13.223-2.965 1 1 0 0 1 1.885.668 10 10 0 0 1-16.489 3.744L2 16.312V20a1 1 0 1 1-2 0v-6Z" fill="#8D9ABC"/></symbol><use fill="none" xlink:href="#refresh-sym" y="234" width="24" height="24"/><view id="refresh" viewBox="0 234 24 24"/><symbol fill="none" id="repair-tool-sym" viewBox="0 0 56 56"><title>repair-tool</title><path d="M50.603 36.344 40.057 25.821c.22-1.075.33-2.17.326-3.267A17.896 17.896 0 0 0 14.927 6.338a2.334 2.334 0 0 0-.677 3.78L24.4 20.243l-4.2 4.2-10.127-10.15a2.333 2.333 0 0 0-2.053-.63 2.332 2.332 0 0 0-1.726 1.307 17.896 17.896 0 0 0 16.333 25.457 15.987 15.987 0 0 0 3.267-.327l10.523 10.547a2.334 2.334 0 0 0 3.313 0 2.332 2.332 0 0 0 0-3.314L28.297 35.901a2.332 2.332 0 0 0-2.217-.607 13.723 13.723 0 0 1-3.453.467A13.232 13.232 0 0 1 9.28 22.554a14 14 0 0 1 .187-2.333l9.146 9.17a2.334 2.334 0 0 0 3.314 0l7.42-7.49a2.333 2.333 0 0 0 0-3.244L20.27 9.511a14.279 14.279 0 0 1 2.334-.187 13.23 13.23 0 0 1 13.206 13.23 13.722 13.722 0 0 1-.467 3.454 2.333 2.333 0 0 0 .607 2.216l11.433 11.433a2.343 2.343 0 1 0 3.314-3.313h-.094Z" fill="#fff"/></symbol><use fill="none" xlink:href="#repair-tool-sym" y="258" width="56" height="56"/><view id="repair-tool" viewBox="0 258 56 56"/><symbol fill="none" id="search-sym" viewBox="0 0 24 24"><title>search</title><path fill-rule="evenodd" clip-rule="evenodd" d="M11 4a7 7 0 1 0 4.856 12.041.998.998 0 0 1 .185-.185A7 7 0 0 0 11 4Zm7.032 12.618a9 9 0 1 0-1.414 1.414l3.675 3.675a1 1 0 0 0 1.414-1.414l-3.675-3.675Z" fill="#1C2022"/></symbol><use fill="none" xlink:href="#search-sym" y="314" width="24" height="24"/><view id="search" viewBox="0 314 24 24"/><symbol fill="none" id="stretcher-sym" viewBox="0 0 56 56"><title>stretcher</title><path d="M42 10.5h7a2.333 2.333 0 1 0 0-4.667h-7a2.333 2.333 0 0 0 0 4.667Zm7 4.667H7A2.333 2.333 0 0 0 4.667 17.5v9.333A2.333 2.333 0 0 0 7 29.167h3.617L22.54 35.14l-6.02 3.01a7 7 0 0 0-4.853-1.983 7 7 0 1 0 7 7c.023-.28.023-.56 0-.84l9.193-4.667 9.474 4.9a5.339 5.339 0 0 0 0 .607 7 7 0 1 0 7-7 7 7 0 0 0-5.017 2.146L32.97 35.14l11.924-5.973H49a2.333 2.333 0 0 0 2.334-2.334V17.5A2.333 2.333 0 0 0 49 15.167ZM11.667 45.5a2.333 2.333 0 1 1 0-4.666 2.333 2.333 0 0 1 0 4.666Zm32.667-4.667a2.333 2.333 0 1 1 0 4.667 2.333 2.333 0 0 1 0-4.667Zm-16.567-8.306L21 29.167h13.417l-6.65 3.36Zm18.9-8.027H9.334v-4.667h37.333V24.5Z" fill="#1C2022"/></symbol><use fill="none" xlink:href="#stretcher-sym" y="338" width="56" height="56"/><view id="stretcher" viewBox="0 338 56 56"/><symbol id="telegram-sym" viewBox="0 0 24 24"><title>telegram</title><path d="M22.265 2.428a2.048 2.048 0 0 0-2.078-.324L2.266 9.339a2.043 2.043 0 0 0 .104 3.818l3.625 1.261 2.02 6.682c.028.089.068.174.119.252.008.012.019.02.027.033a.987.987 0 0 0 .281.265c.095.063.2.11.31.136l.013.001.006.003c.067.014.135.02.203.02l.018-.003a.995.995 0 0 0 .302-.052c.022-.008.041-.02.063-.03a.994.994 0 0 0 .205-.114l.152-.129 2.702-2.983 4.03 3.122a2.03 2.03 0 0 0 1.241.427 2.054 2.054 0 0 0 2.008-1.633l3.263-16.017a2.03 2.03 0 0 0-.693-1.97ZM9.37 14.736a.994.994 0 0 0-.272.506l-.31 1.504-.784-2.593 4.065-2.117-2.699 2.7Zm8.302 5.304-4.763-3.69a1.001 1.001 0 0 0-1.353.12l-.866.955.306-1.487 7.083-7.083a1 1 0 0 0-1.169-1.593L6.745 12.554 3.02 11.191 20.999 4l-3.327 16.04Z"/></symbol><use xlink:href="#telegram-sym" y="394" width="24" height="24"/><view id="telegram" viewBox="0 394 24 24"/><symbol fill="none" id="tick-sym" viewBox="0 0 14 14"><title>tick</title><path fill-rule="evenodd" clip-rule="evenodd" d="M12.373 2.793a1 1 0 0 1 0 1.414l-6.416 6.417a1 1 0 0 1-1.414 0L1.626 7.707A1 1 0 0 1 3.04 6.293l2.21 2.21 5.71-5.71a1 1 0 0 1 1.413 0Z" fill="#0A8BF1"/></symbol><use fill="none" xlink:href="#tick-sym" y="418" width="14" height="14"/><view id="tick" viewBox="0 418 14 14"/><symbol fill="none" id="time-sym" viewBox="0 0 24 24"><title>time</title><path d="M12 2a10 10 0 1 0 0 20 10 10 0 0 0 0-20Zm0 18a8 8 0 1 1 0-16.001A8 8 0 0 1 12 20Zm0-14a1 1 0 0 0-1 1v4H9a1 1 0 0 0 0 2h3a1 1 0 0 0 1-1V7a1 1 0 0 0-1-1Z" fill="#1C2022"/></symbol><use fill="none" xlink:href="#time-sym" y="432" width="24" height="24"/><view id="time" viewBox="0 432 24 24"/><symbol id="vk-sym" viewBox="0 0 24 24"><title>vk</title><path d="M15.744 13.53a5.514 5.514 0 0 0-.978-.837 7.873 7.873 0 0 0 2.859-4.471 1 1 0 1 0-1.95-.444 5.86 5.86 0 0 1-3.02 3.903V8.002a.957.957 0 0 0-.044-.216 1.025 1.025 0 0 0-.035-.171.992.992 0 0 0-.167-.25c-.018-.02-.027-.048-.046-.068a1.002 1.002 0 0 0-.246-.167c-.026-.014-.045-.037-.072-.048a1.02 1.02 0 0 0-.236-.049.943.943 0 0 0-.152-.031L11.003 7H11a.995.995 0 0 0-.35 1.929v4.89a11.307 11.307 0 0 1-3.01-5.984 1 1 0 0 0-1.972.334 13.333 13.333 0 0 0 5.4 8.643.98.98 0 0 0 .128.065.976.976 0 0 0 .458.125.982.982 0 0 0 .424-.102c.01-.005.022-.002.031-.007a.99.99 0 0 0 .24-.176c.015-.014.024-.03.038-.045a.992.992 0 0 0 .197-.324.987.987 0 0 0 .07-.346v-2.126a3.55 3.55 0 0 1 1.616 1.005l1.648 1.797a.997.997 0 0 0 1.414.062.999.999 0 0 0 .06-1.414l-1.648-1.797ZM15.073 1H8.937C2.78 1 1 2.778 1 8.927v6.136C1 21.22 2.778 23 8.927 23h6.136C21.22 23 23 21.222 23 15.073V8.937C23 2.78 21.222 1 15.073 1ZM21 15.073c0 5.04-.888 5.927-5.938 5.927H8.928C3.887 21 3 20.112 3 15.062V8.928C3 3.887 3.888 3 8.938 3h6.135C20.113 3 21 3.888 21 8.938v6.135Z"/></symbol><use xlink:href="#vk-sym" y="456" width="24" height="24"/><view id="vk" viewBox="0 456 24 24"/><symbol id="whatsapp-sym" viewBox="0 0 24 24"><title>whatsapp</title><path fill-rule="evenodd" clip-rule="evenodd" d="M3.5 12a8.5 8.5 0 1 1 3.958 7.186 1 1 0 0 0-.82-.113l-2.88.859 1.084-2.537a1 1 0 0 0-.07-.92A8.456 8.456 0 0 1 3.5 12ZM12 1.5C6.201 1.5 1.5 6.201 1.5 12c0 1.838.473 3.568 1.305 5.073L1.08 21.107a1 1 0 0 0 1.206 1.351l4.5-1.342A10.455 10.455 0 0 0 12 22.5c5.8 0 10.5-4.701 10.5-10.5S17.8 1.5 12 1.5Zm2.293 12.682-1.315.926A9.337 9.337 0 0 1 11 13.585a10.203 10.203 0 0 1-1.624-2.114l.835-.709a1 1 0 0 0 .236-1.232l-1.064-2a1 1 0 0 0-1.54-.283l-.316.275c-.759.662-1.208 1.75-.836 2.852A12.049 12.049 0 0 0 9.586 15c1.813 1.813 3.655 2.527 4.733 2.805.868.223 1.69-.076 2.268-.548l.591-.482a1 1 0 0 0-.12-1.634l-1.678-1a1 1 0 0 0-1.088.041h.001Z"/></symbol><use xlink:href="#whatsapp-sym" y="480" width="24" height="24"/><view id="whatsapp" viewBox="0 480 24 24"/><symbol id="youtube-sym" viewBox="0 0 24 24"><title>youtube</title><path fill-rule="evenodd" clip-rule="evenodd" d="M12 3v2h-.076a86.587 86.587 0 0 0-1.016.007c-.667.007-1.574.022-2.534.05a68.55 68.55 0 0 0-2.832.134c-.888.065-1.548.147-1.877.233a1.78 1.78 0 0 0-1.228 1.25A28 28 0 0 0 2 11.745v.011a28 28 0 0 0 .434 5.093 1.78 1.78 0 0 0 1.227 1.186c.327.087.989.168 1.88.234.867.063 1.872.105 2.833.134a136.738 136.738 0 0 0 3.55.057h.37a140.447 140.447 0 0 0 3.33-.057 69.612 69.612 0 0 0 2.833-.134c.889-.065 1.549-.147 1.877-.233a1.78 1.78 0 0 0 1.228-1.25c.297-1.66.444-3.345.438-5.032v-.01a28.004 28.004 0 0 0-.438-5.11 1.78 1.78 0 0 0-1.218-1.247c-.34-.08-1.002-.154-1.88-.212a75.155 75.155 0 0 0-2.836-.123 149.278 149.278 0 0 0-3.334-.051h-.219L12 5V3h.08a106.602 106.602 0 0 1 1.031.007c.676.006 1.596.02 2.57.046.974.026 2.01.066 2.916.126.88.059 1.714.141 2.24.27a3.78 3.78 0 0 1 2.687 2.794A30 30 0 0 1 24 11.751a29.997 29.997 0 0 1-.49 5.492 3.78 3.78 0 0 1-2.638 2.72l-.014.003c-.534.143-1.376.233-2.255.297-.907.066-1.945.11-2.919.14a138.67 138.67 0 0 1-3.604.057h-.16a117.262 117.262 0 0 1-1.033-.007 138.66 138.66 0 0 1-2.572-.05 70.549 70.549 0 0 1-2.919-.14c-.88-.064-1.721-.154-2.255-.297l-.005-.001a3.78 3.78 0 0 1-2.638-2.611.996.996 0 0 1-.023-.096A30 30 0 0 1 0 11.748a30 30 0 0 1 .49-5.532 3.78 3.78 0 0 1 2.637-2.72l.014-.003c.534-.143 1.376-.233 2.255-.297.907-.066 1.945-.11 2.919-.14A138.222 138.222 0 0 1 11.92 3H12ZM9.246 7.616a1 1 0 0 1 .997-.005l5.75 3.27a1 1 0 0 1 0 1.738l-5.75 3.27a1 1 0 0 1-1.494-.869V8.48a1 1 0 0 1 .497-.864Zm1.503 2.583v3.102l2.727-1.551-2.727-1.55Z"/></symbol><use xlink:href="#youtube-sym" y="504" width="24" height="24"/><view id="youtube" viewBox="0 504 24 24"/></svg>